# xmcd CD database file
#
# Track frame offsets:
#	150
#	25417
#	48045
#
# Disc length: 922 seconds
#
# Revision: 0
# Processed by: cddbd v1.5.1PL2 Copyright (c) Steve Scherf et al.
# Submitted via: CDex 1.51
#
DISCID=1a039803
DTITLE=ENDLICHERI☆ENDLICHERI - ソメイヨシノ
DYEAR=2006
DGENRE=JPop
TTITLE0=ソメイヨシノ
TTITLE1=濡れ鼠
TTITLE2=Blue Berry
EXTD=YEAR: 2006
EXTT0=
EXTT1=
EXTT2=
PLAYORDER=
